<?xml version="1.0" standalone="no"?>
<!DOCTYPE svg PUBLIC "-//W3C//DTD SVG 20010904//EN"
 "http://www.w3.org/TR/2001/REC-SVG-20010904/DTD/svg10.dtd">
<svg version="1.0" xmlns="http://www.w3.org/2000/svg"
 width="700.000000pt" height="700.000000pt" viewBox="0 0 700.000000 700.000000"
 preserveAspectRatio="xMidYMid meet">
<metadata>
Created by potrace 1.11, written by Peter Selinger 2001-2013
</metadata>
<g transform="translate(0.000000,700.000000) scale(0.100000,-0.100000)"
fill="#000000" stroke="none">
<path d="M5700 5996 c0 -2 9 -23 19 -47 28 -64 105 -334 135 -479 50 -238 86
-579 86 -818 0 -252 -45 -623 -102 -832 -11 -41 -23 -88 -27 -105 -54 -210
-199 -519 -339 -719 -137 -197 -348 -405 -527 -522 -33 -21 -62 -41 -65 -44
-3 -3 -16 -11 -30 -19 -134 -77 -213 -121 -216 -121 -2 0 -34 -14 -71 -31 -68
-32 -224 -87 -298 -107 -22 -6 -59 -15 -81 -21 -144 -38 -448 -53 -609 -31
-240 33 -506 137 -715 278 -52 36 -97 67 -100 71 -3 3 -27 24 -55 46 -119 96
-269 262 -382 425 -152 220 -290 519 -335 725 -16 77 -16 304 1 375 68 293
256 558 523 739 55 37 257 141 274 141 6 0 24 6 40 14 16 8 76 24 133 36 133
29 321 25 414 -9 219 -78 338 -225 392 -486 17 -80 20 -346 6 -422 -23 -118
-24 -127 -7 -110 9 8 16 19 16 22 0 4 8 19 19 33 25 36 123 233 150 302 50
130 73 249 78 406 7 198 -14 309 -88 470 -132 290 -440 544 -791 654 -126 40
-159 47 -298 66 -188 25 -335 14 -600 -46 -53 -12 -239 -74 -295 -99 -27 -13
-95 -45 -150 -73 -55 -28 -110 -56 -122 -62 -13 -6 -23 -14 -23 -18 0 -5 -5
-8 -11 -8 -13 0 -149 -94 -244 -168 -141 -111 -324 -307 -458 -493 -204 -283
-336 -632 -398 -1054 -14 -101 -14 -527 0 -631 6 -43 16 -115 22 -159 6 -44
26 -151 45 -237 144 -648 453 -1153 925 -1510 159 -120 387 -245 587 -321 148
-57 151 -58 187 -67 17 -5 73 -20 125 -34 283 -75 614 -115 947 -116 172 0
243 5 408 32 79 12 311 73 337 88 10 6 26 10 36 10 10 0 22 4 28 8 5 4 27 14
49 21 51 17 288 132 358 173 98 58 297 192 297 200 0 4 4 8 10 8 5 0 19 8 31
17 195 159 404 358 495 470 18 21 45 52 61 68 15 17 39 46 53 65 13 19 27 37
30 40 3 3 18 23 35 45 16 22 34 45 40 51 5 6 39 55 75 110 36 54 67 101 70
104 5 5 10 14 85 145 28 50 58 105 66 123 7 17 17 32 21 32 5 0 8 4 8 9 0 5
24 60 54 122 60 127 152 365 186 479 12 41 26 86 31 100 31 94 88 385 109 560
17 134 17 547 1 665 -23 168 -81 440 -110 517 -5 13 -14 41 -20 63 -7 22 -16
49 -21 60 -4 11 -23 55 -40 99 -34 84 -126 266 -179 356 -37 61 -160 242 -170
250 -4 3 -29 33 -55 68 -41 52 -66 74 -66 58z m-4785 -1522 c-30 -121 -61
-304 -75 -443 -15 -149 -12 -495 5 -646 30 -270 103 -597 186 -829 52 -146
176 -398 259 -526 379 -583 979 -945 1755 -1062 134 -20 481 -17 625 6 265 41
502 119 759 247 353 176 646 399 981 745 74 76 110 110 80 74 -97 -115 -302
-319 -424 -424 -463 -396 -943 -628 -1455 -703 -142 -21 -475 -23 -606 -5
-406 58 -809 196 -1105 382 -303 189 -595 475 -782 765 -197 305 -330 653
-385 1010 -22 139 -24 548 -5 705 19 153 58 346 98 483 36 125 106 329 111
324 1 -2 -8 -48 -22 -103z m4665 -2328 c0 -2 -8 -10 -17 -17 -16 -13 -17 -12
-4 4 13 16 21 21 21 13z"/>
</g>
</svg>
