<?xml version="1.0" standalone="no"?>
<!DOCTYPE svg PUBLIC "-//W3C//DTD SVG 20010904//EN"
 "http://www.w3.org/TR/2001/REC-SVG-20010904/DTD/svg10.dtd">
<svg version="1.0" xmlns="http://www.w3.org/2000/svg"
 width="700.000000pt" height="700.000000pt" viewBox="0 0 700.000000 700.000000"
 preserveAspectRatio="xMidYMid meet">
<metadata>
Created by potrace 1.11, written by Peter Selinger 2001-2013
</metadata>
<g transform="translate(0.000000,700.000000) scale(0.100000,-0.100000)"
fill="#000000" stroke="none">
<path d="M5590 6459 c-19 -5 -39 -11 -45 -12 -44 -12 -120 -62 -170 -113 -56
-57 -72 -80 -94 -136 -5 -13 -13 -35 -19 -50 -22 -54 -25 -169 -7 -243 10 -39
21 -74 26 -79 5 -6 9 -19 9 -31 0 -12 4 -25 9 -31 9 -8 73 -225 85 -284 3 -14
10 -42 15 -62 5 -21 7 -38 5 -38 -3 0 0 -8 5 -19 6 -10 11 -35 13 -55 1 -20 5
-36 8 -36 4 0 8 -31 13 -112 1 -16 4 -28 7 -28 3 0 6 -17 8 -38 1 -20 6 -77
11 -127 10 -99 7 -612 -4 -660 -3 -16 -8 -43 -10 -60 -8 -70 -17 -125 -32
-195 -8 -41 -18 -86 -20 -100 -3 -14 -7 -32 -10 -40 -3 -8 -7 -19 -9 -25 -20
-81 -37 -134 -68 -220 -2 -5 -4 -14 -4 -19 0 -5 -4 -12 -9 -15 -4 -3 -14 -24
-22 -46 -8 -22 -17 -42 -20 -45 -3 -3 -24 -42 -46 -87 -21 -46 -42 -83 -45
-83 -4 0 -12 -16 -20 -35 -8 -19 -17 -35 -20 -35 -4 0 -21 -21 -38 -47 -48
-75 -71 -101 -167 -199 -89 -89 -129 -125 -195 -174 -18 -14 -39 -31 -46 -37
-7 -7 -15 -13 -18 -13 -4 0 -40 -20 -80 -45 -41 -25 -79 -45 -85 -45 -6 0 -11
-4 -11 -10 0 -5 -9 -10 -20 -10 -11 0 -20 -4 -20 -8 0 -8 -71 -37 -79 -33 -2
2 -7 -1 -10 -7 -3 -5 -19 -14 -36 -20 -16 -6 -53 -19 -82 -30 -28 -11 -54 -17
-57 -14 -3 3 -6 1 -6 -4 0 -9 -18 -14 -62 -17 -10 -1 -18 -5 -18 -9 0 -4 -3
-7 -7 -6 -8 2 -92 -11 -123 -19 -30 -8 -274 -9 -324 -2 -91 13 -131 21 -141
27 -5 4 -14 7 -20 8 -46 9 -69 16 -130 42 -127 55 -258 131 -312 181 -12 12
-26 21 -30 21 -15 0 -221 219 -268 286 -27 38 -52 71 -55 74 -22 18 -160 277
-190 355 -59 153 -57 147 -63 200 -2 17 -6 35 -8 40 -11 20 5 148 26 210 17
50 59 129 93 175 68 92 217 222 285 246 9 3 17 11 17 17 0 6 3 8 6 4 3 -3 21
3 39 13 63 35 176 64 257 64 96 1 125 -17 152 -95 28 -79 27 -293 -2 -427 -5
-21 -7 -61 -6 -91 2 -47 5 -70 19 -136 4 -19 46 -107 58 -122 40 -49 98 -104
132 -126 100 -64 253 -87 367 -53 29 8 55 14 58 13 3 -1 16 8 30 21 13 12 27
22 32 22 21 0 131 109 154 152 8 15 27 46 43 70 68 102 208 408 225 494 2 10
11 39 19 64 9 25 18 61 20 80 3 19 6 35 7 35 2 0 8 32 16 90 9 70 13 388 5
400 -4 6 -8 28 -10 50 -4 54 -25 145 -55 233 -14 39 -22 72 -19 72 3 0 -1 8
-10 18 -10 10 -14 22 -10 25 3 4 0 7 -7 7 -7 0 -11 3 -7 6 3 3 -7 29 -21 57
-14 29 -25 55 -24 60 1 4 -1 7 -5 7 -5 0 -21 25 -38 55 -16 30 -33 55 -37 55
-4 0 -8 6 -8 13 0 7 -18 33 -40 57 -22 25 -40 49 -40 53 -1 22 -242 246 -327
304 -21 14 -40 29 -43 32 -6 9 -44 24 -47 19 -1 -2 -8 5 -15 14 -16 21 -185
110 -293 153 -175 71 -389 123 -575 140 -167 15 -410 2 -560 -30 -14 -3 -45
-10 -70 -15 -45 -9 -126 -30 -187 -49 -18 -5 -33 -7 -33 -3 0 4 -4 2 -8 -3 -4
-6 -34 -19 -67 -29 -33 -10 -73 -24 -90 -31 -16 -8 -56 -25 -89 -40 -32 -14
-63 -27 -70 -28 -6 -1 -13 -4 -16 -7 -5 -5 -132 -73 -177 -94 -13 -6 -23 -14
-23 -18 0 -5 -9 -8 -20 -8 -11 0 -20 -3 -20 -7 0 -5 -21 -20 -48 -35 -26 -15
-57 -36 -69 -48 -13 -11 -23 -18 -23 -15 0 4 -7 0 -15 -7 -33 -30 -45 -38 -55
-38 -5 0 -10 -3 -10 -7 0 -5 -17 -19 -38 -33 -20 -14 -39 -27 -42 -30 -3 -3
-39 -34 -80 -70 -127 -111 -259 -246 -335 -344 -16 -21 -35 -44 -40 -50 -27
-28 -143 -199 -194 -285 -51 -86 -171 -320 -171 -334 0 -3 -5 -18 -11 -34 -6
-15 -10 -30 -9 -32 1 -2 -2 -7 -7 -10 -6 -4 -58 -148 -68 -191 -1 -3 -5 -13
-9 -22 -8 -18 -10 -24 -21 -86 -4 -23 -12 -45 -16 -48 -5 -3 -9 -16 -9 -29 0
-13 -7 -50 -15 -82 -8 -32 -18 -80 -20 -108 -3 -27 -7 -57 -10 -65 -11 -37
-27 -268 -28 -400 -1 -100 9 -291 18 -369 2 -14 6 -55 10 -91 7 -75 31 -225
35 -225 1 0 3 -18 6 -40 2 -22 7 -47 10 -55 4 -8 9 -33 11 -55 3 -22 8 -42 12
-45 4 -3 8 -15 8 -27 2 -30 60 -235 84 -295 10 -27 17 -48 14 -48 -3 0 6 -25
20 -55 13 -31 24 -58 24 -60 1 -3 8 -21 16 -41 8 -20 15 -38 15 -40 0 -2 20
-45 45 -96 25 -51 45 -98 45 -105 0 -6 4 -13 9 -15 4 -2 26 -37 47 -78 21 -41
42 -79 46 -85 21 -27 118 -179 118 -185 0 -5 3 -10 8 -12 4 -2 33 -38 66 -81
32 -42 63 -77 67 -77 5 0 9 -4 9 -10 0 -33 418 -430 452 -430 6 0 18 -8 27
-18 21 -23 169 -120 261 -171 144 -79 440 -213 500 -226 8 -2 35 -11 59 -19
43 -16 212 -64 250 -71 10 -2 36 -9 57 -15 22 -6 53 -13 69 -16 17 -2 41 -7
55 -11 42 -10 53 -12 97 -15 24 -2 43 -5 43 -8 0 -5 16 -8 100 -15 19 -1 35
-4 35 -5 0 -1 20 -4 45 -6 25 -1 59 -6 75 -9 42 -8 283 -18 455 -19 171 0 326
10 401 25 99 20 144 27 156 22 7 -3 13 0 13 6 0 6 15 11 34 11 19 0 37 4 41 9
3 6 13 9 23 9 20 -1 172 44 225 65 19 9 38 13 41 9 3 -3 6 0 6 6 0 7 3 11 8
10 13 -4 102 26 102 34 0 4 7 8 15 8 8 0 23 4 33 9 9 5 71 35 137 67 66 31
148 74 182 95 35 21 72 40 83 44 11 3 20 11 20 16 0 5 7 9 15 9 8 0 15 5 15
10 0 6 6 10 13 10 7 0 22 8 33 18 10 9 32 24 47 32 16 8 40 25 53 37 14 13 28
23 33 23 4 0 16 8 27 18 11 9 49 39 84 67 90 69 97 75 146 121 24 23 44 39 44
37 0 -7 304 299 356 358 23 25 67 79 100 120 76 97 68 85 119 154 24 33 49 65
55 72 5 7 10 17 10 23 0 5 5 10 10 10 6 0 10 7 10 15 0 8 5 15 10 15 6 0 10 5
10 12 0 6 10 22 23 36 12 13 33 43 47 67 14 24 53 92 87 152 34 59 67 113 72
120 6 7 11 17 11 23 0 10 20 50 30 60 6 6 70 137 70 143 0 3 18 43 39 88 22
46 37 87 35 91 -3 4 0 8 5 8 6 0 11 5 11 11 0 10 31 95 75 204 4 11 10 29 12
40 1 11 7 29 12 40 5 11 17 47 26 80 10 33 24 77 31 98 8 20 12 37 10 37 -2 0
2 20 9 44 8 24 11 47 8 50 -4 3 -2 6 3 6 6 0 11 16 12 37 2 20 6 41 9 47 4 5
8 19 9 31 1 11 5 34 9 50 9 46 25 137 30 180 1 6 5 37 9 70 4 33 9 70 11 83
22 141 22 548 1 725 -2 15 -7 55 -11 90 -4 34 -9 65 -10 68 -2 3 -7 28 -11 55
-3 27 -8 52 -10 55 -1 3 -6 28 -10 55 -3 27 -10 57 -15 66 -5 9 -9 25 -9 36 0
10 -9 50 -21 88 -51 168 -70 230 -78 249 -5 11 -30 72 -56 135 -26 63 -53 118
-59 122 -6 4 -8 8 -3 8 8 0 -104 219 -134 261 -10 15 -19 29 -19 32 0 6 -147
224 -164 244 -13 15 -20 24 -66 83 -19 25 -42 52 -52 61 -10 9 -18 19 -18 22
0 6 -52 58 -90 90 -36 30 -111 68 -165 83 -56 15 -172 17 -225 3z"/>
</g>
</svg>
